<svg xmlns="http://www.w3.org/2000/svg" xmlns:xlink="http://www.w3.org/1999/xlink" viewBox="0,0,256,256" width="500px" height="500px" fill-rule="nonzero"><g fill="#fcc419" fill-rule="nonzero" stroke="none" stroke-width="1" stroke-linecap="butt" stroke-linejoin="miter" stroke-miterlimit="10" stroke-dasharray="" stroke-dashoffset="0" font-family="none" font-weight="none" font-size="none" text-anchor="none" style="mix-blend-mode: normal"><g transform="scale(5.12,5.12)"><path d="M15,3c-6.61547,0 -12,5.38453 -12,12v20c0,6.61547 5.38453,12 12,12h20c6.61547,0 12,-5.38453 12,-12v-20c0,-6.61547 -5.38453,-12 -12,-12zM15,5h20c5.53453,0 10,4.46547 10,10v20c0,5.53453 -4.46547,10 -10,10h-20c-5.53453,0 -10,-4.46547 -10,-10v-20c0,-5.53453 4.46547,-10 10,-10zM11.61523,18.06641c-0.703,0 -1.2207,0.50116 -1.2207,1.16016c0,0.65 0.5177,1.15039 1.2207,1.15039c0.703,0 1.22266,-0.50039 1.22266,-1.15039c0,-0.659 -0.51966,-1.16016 -1.22266,-1.16016zM22.03711,18.63672c-3.639,0 -5.92383,2.54853 -5.92383,6.64453c0,4.087 2.24083,6.65234 5.92383,6.65234c3.674,0 5.90625,-2.57434 5.90625,-6.65234c0,-4.087 -2.25025,-6.64353 -5.90625,-6.64453zM34.9668,18.63672c-2.768,0 -4.61523,1.50272 -4.61523,3.76172c0,1.863 1.04584,2.97181 3.33984,3.50781l1.63477,0.39648c1.679,0.395 2.41797,0.97441 2.41797,1.94141c0,1.125 -1.16019,1.94141 -2.74219,1.94141c-1.6951,0 -2.87303,-0.76391 -3.04102,-1.9668h-1.95313c0.141,2.268 2.0298,3.7168 4.8418,3.7168c3.006,0 4.88672,-1.51931 4.88672,-3.94531c0,-1.907 -1.07183,-2.96236 -3.67383,-3.56836l-1.39648,-0.34375c-1.652,-0.387 -2.32031,-0.90555 -2.32031,-1.81055c0,-1.143 1.03775,-1.88867 2.59375,-1.88867c1.477,0 2.49469,0.72748 2.67969,1.89648h1.91602c-0.114,-2.136 -1.99336,-3.63867 -4.56836,-3.63867zM22.03711,20.47266c2.409,0 3.89453,1.86459 3.89453,4.80859c0,2.926 -1.48653,4.81641 -3.89453,4.81641c-2.434,0 -3.91016,-1.88941 -3.91016,-4.81641c0,-2.944 1.51916,-4.80759 3.91016,-4.80859zM10.67578,22.05664v9.57031h1.88086v-9.57031z"></path></g></g></svg>